# xmcd
#
# Track frame offsets:
#	150
#	13656
#	34607
#	48411
#	67512
#	82568
#	99089
#	114411
#	128366
#	145819
#
# Disc length: 2196 seconds
#
# Revision: 0
# Processed by: cddbd v1.5.2PL0 Copyright (c) Steve Scherf et al.
# Submitted via: EZCDAudioConverter 2.8.0.1
#
DISCID=6208920a
DTITLE=Dave Hawkins - Drivin' My Life Away
DYEAR=2014
DGENRE=
TTITLE0=Dirt Track Cowboys
TTITLE1=Drivin' Wheels
TTITLE2=Guitars Cadillacs
TTITLE3=I Never Go Around Mirrors
TTITLE4=Drivin' My Life Away
TTITLE5=It's Five O'Clock Somewhere
TTITLE6=The Cowboy Rides Away
TTITLE7=Liza Jane
TTITLE8=Stuck In The Middle With You
TTITLE9=Who Would Wanna Be Me
EXTD=
EXTT0=
EXTT1=
EXTT2=
EXTT3=
EXTT4=
EXTT5=
EXTT6=
EXTT7=
EXTT8=
EXTT9=
PLAYORDER=
